# xmcd
#
# Track frame offsets:
# 150
# 35012
# 55050
# 81537
# 105845
# 123065
# 145260
# 160047
# 193015
#
# Disc length: 2839 seconds
#
#
# Revision: 2
# Processed by: cddbd v1.4PL0 Copyright (c) Steve Scherf et al.
# Submitted via: FreeRIP 2.20 
#
DISCID=6f0b1509
DTITLE=Mike Bloomfield - Live At The Old Waldorf
DYEAR=1998
DGENRE=Blues
TTITLE0=Blues Medley: Sweet Little Angel - Jelly Jelly
TTITLE1=Feel So Bad
TTITLE2=Bad Luck Baby
TTITLE3=The Sky Is Cryin'
TTITLE4=Dancin' Fool
TTITLE5=Buried Alive In The Blues
TTITLE6=Farther Up The Road
TTITLE7=Your Friends
TTITLE8=Bye, Bye
EXTD=YEAR: 1998 ID3G: 0
EXTT0=
EXTT1=
EXTT2=
EXTT3=
EXTT4=
EXTT5=
EXTT6=
EXTT7=
EXTT8=
PLAYORDER=
